<?xml version="1.0" encoding="utf-8"?>
<svg width="192" height="52" viewBox="0 0 192 52" xmlns="http://www.w3.org/2000/svg">
  <g fill="none" fill-rule="nonzero">
    <circle cx="26" cy="26" r="18" fill="#54BAD1"/>
    <path fill="#54BAD1" d="M26 52C11.7 52 0 40.3 0 26S11.7 0 26 0s26 11.7 26 26-11.7 26-26 26zm0-48C13.9 4 4 13.9 4 26s9.9 22 22 22 22-9.9 22-22S38.1 4 26 4z"/>
    <path fill="#FFF" d="M33.778 25.01c-.675-.561-1.548-.741-2.583-.768 1.034-1.05 1.29-2.308.644-3.846-.267-.57-.504-1.04-.903-1.357-.399-.316-.798-.632-1.33-.695a4.532 4.532 0 0 0-1.594-.19c-.503.037-1.196.128-1.889.22l-.941-3.285-1.898.545.913 3.184-1.519.435-.941-3.284-1.898.545.941 3.284-1.234.353-2.657.762.628 2.19 1.423-.409c.598-.063 1.064.126 1.33.696l1.084 3.782.19-.055-.19.055 1.512 5.274c.02.425-.085.778-.56.914l-1.328.381.306 2.497 2.562-.734c.19-.055.38-.11.664-.19.285-.083.57-.164.665-.191l.97 3.383 1.898-.544-.942-3.284 1.519-.436.941 3.284 1.898-.544-.97-3.383c.664-.19 1.3-.48 1.746-.716.541-.263.987-.499 1.376-.933.417-.335.711-.743 1.005-1.15.2-.38.37-.86.512-1.44.047-.551.094-1.103-.105-1.8-.03-1.176-.476-2.017-1.245-2.55zm-10.32-3.395l.474-.137.665-.19.759-.218c.285-.081.598-.064.788-.118.19-.054.503-.036.721.009.313.017.532.063.684.234.218.045.37.217.55.489.152.171.333.443.419.741.057.2.142.498.104.724-.037.226-.075.453-.237.606-.16.154-.199.38-.36.535-.161.154-.322.307-.512.362a1.845 1.845 0 0 1-.636.29c-.19.054-.351.208-.636.29l-.664.19-.57.164-.474.136-1.075-4.107zm7.883 7.432c-.038.226-.076.452-.142.579-.067.127-.2.38-.36.534l-.485.462c-.16.154-.446.235-.607.39-.256.18-.446.235-.73.317-.19.054-.475.136-.731.317l-.665.19-.569.164-.474.136-1.285-4.478.57-.164.854-.245.854-.245c.38-.108.693-.09.978-.172.313.018.598-.064.91-.046.314.018.627.036.874.18.247.145.494.29.646.461.152.172.332.443.418.742-.076.452-.019.651-.056.878z"/>
    <path d="M78.746 31.715H76.54l-1.404-3.228H67.51l-1.304 3.228H64l6.22-14.525h2.407l6.12 14.525zm-4.113-4.842l-3.21-7.88-3.31 7.88h6.52zm23.373 4.842h-1.805l-8.928-11.582v11.582h-1.906V17.19h2.006l8.828 11.392V17.19h1.906v14.525h-.1zm14.445 0h-1.906v-6.17l-6.018-8.45h2.207l4.815 6.74 4.815-6.74h2.207l-6.02 8.45v6.17h-.1zm19.762.285c-2.307 0-4.313-.665-5.818-2.089-1.605-1.424-2.307-3.227-2.307-5.411 0-2.184.802-3.987 2.307-5.411C128 17.665 129.906 17 132.213 17c2.91 0 5.016 1.14 6.42 3.513l-2.809 1.329c-.3-.57-.802-1.14-1.504-1.52-.702-.379-1.405-.569-2.107-.569-1.404 0-2.508.475-3.41 1.33-.903.949-1.405 2.088-1.405 3.417 0 1.424.502 2.563 1.405 3.418.902.95 2.106 1.329 3.41 1.329.803 0 1.505-.19 2.107-.57.602-.38 1.103-.95 1.504-1.519l2.81 1.33c-1.405 2.278-3.612 3.512-6.42 3.512zm20.263 0c-2.307 0-4.213-.665-5.717-2.089-1.505-1.424-2.308-3.227-2.308-5.411 0-2.184.803-3.987 2.308-5.411 1.504-1.424 3.41-2.089 5.717-2.089 2.308 0 4.314.665 5.819 2.089 1.504 1.424 2.307 3.227 2.307 5.411 0 2.184-.803 3.987-2.307 5.411-1.505 1.424-3.511 2.089-5.819 2.089zm-3.41-4.082c.903.95 2.006 1.329 3.41 1.329 1.405 0 2.508-.475 3.411-1.33.903-.949 1.304-2.088 1.304-3.417 0-1.424-.401-2.563-1.304-3.418-.903-.95-2.006-1.329-3.41-1.329-1.405 0-2.508.475-3.411 1.33-.903.949-1.304 2.088-1.304 3.417 0 1.33.401 2.468 1.304 3.418zm21.567 3.797h-3.31V17.19h3.31v14.525zm21.267 0h-3.11l-7.323-9.493v9.493h-3.31V17.19h3.41l7.123 9.114V17.19H192v14.525h-.1z" style="fill: rgb(164, 164, 164);"/>
  </g>
</svg>